<svg width="801" height="571" viewBox="0 0 801 571" xmlns="http://www.w3.org/2000/svg">
  <title>
    camp_shaw
  </title>
  <g fill="none" fill-rule="evenodd">
    <path d="M250.5 305.582c62.132 0 112.5-49.325 112.5-110.17 0-60.846-50.368-110.17-112.5-110.17S138 134.565 138 195.41c0 60.845 50.368 110.17 112.5 110.17z" fill="#E3E3E3"/>
    <path d="M255.68 24.34c0-26.922 4.465-31.95 4.465-31.95H301.3l-5.347 27.688-3 10.42s-2.566 21.086 8.64 21.086c11.208 0 27.126 19.9 27.126 19.9l32.47 49.663 13.806 22.11s6.082 28.55-6.902 51.53c-2.872 5.083-2.305 9.617-2.903 14.01-2.104 15.467 4.93 26.158 4.93 26.158s15.814 23.146 24.575 23.146c8.762 0 25.25 23.147 41.848 23.147s45.38-20.822 45.38-20.822l47.667-19.956 22.402-7.56 39.602 13.777 46.668 26.823s32.465 36.577 37.85 36.577c5.388 0 63.24 42.507 63.24 42.507s12.156 16.583-3.125 49.235c-3.467 7.407-4.305 6.09-4.868 10.426-.525 4.043 3.293 7.48 4.156 10.298 2.29 7.477 4.402 10.765 4.402 10.765l16.86 77.39 5.25 29.017 17.667 31.315H759.5l-15.984-34.175-12.157-36.453-12.11-55.246-9.418-32.912s-13.906-66.536-97.074-112.483c-10.095-5.577-19.01-4.152-26.925-5.666-9.494-1.817-17.544-6.116-24.454-8.36-8.468-2.748-15.116-1.66-20.328-2.957-16.203-4.032-18.536-5.25-18.536-5.25l-42.184 8.208s-33.418 33.37-48.184 23.698c-4.082-2.675-8.148.856-11.652 0-9.167-2.24-15.95-5.648-20.086-13.225-5.715-10.472-70.144-43.35-70.144-57.65 0-14.302-13.61-11.788.293-21.943 13.9-10.154 17.21-22.388 11.514-41.22-1.768-5.848-7.76-2.69-11.515-5.344-2.923-2.065-.68-4.306-2.757-6.586-3.853-4.224-9.377-8.58-5.315-12.18 9.07-8.04-33.527-66.51-33.527-66.51s-27.558-24.012-27.558-33.522c0-4.27-5.722 0-5.722-26.924z" fill="#D8D8D8"/>
    <path d="M255.68 24.34c0-26.922 4.465-32.953 4.465-32.953H301.3l-5.347 28.69-3 10.42s-2.566 21.087 8.64 21.087c11.208 0 27.126 19.9 27.126 19.9l32.47 49.663 13.806 22.11s6.082 28.55-6.902 51.53c-2.872 5.083-2.305 9.617-2.903 14.01-2.104 15.467 4.93 26.158 4.93 26.158s15.814 23.146 24.575 23.146c8.762 0 25.25 23.147 41.848 23.147s45.38-20.822 45.38-20.822l47.667-19.956 22.402-7.56 39.602 13.777 46.668 26.823s32.465 36.577 37.85 36.577c5.388 0 63.24 42.507 63.24 42.507s12.156 16.583-3.125 49.235c-3.467 7.407-4.305 6.09-4.868 10.426-.525 4.043 3.293 7.48 4.156 10.298 2.29 7.477 4.402 10.765 4.402 10.765l16.86 77.39 5.25 29.017 17.667 31.315H759.5l-15.984-34.175-12.157-36.453-12.11-55.246-9.418-32.912s-13.906-66.536-97.074-112.483c-10.095-5.577-19.01-4.152-26.925-5.666-9.494-1.817-17.544-6.116-24.454-8.36-8.468-2.748-15.116-1.66-20.328-2.957-16.203-4.032-18.536-5.25-18.536-5.25l-42.184 8.208s-33.418 33.37-48.184 23.698c-4.082-2.675-8.148.856-11.652 0-9.167-2.24-15.95-5.648-20.086-13.225-5.715-10.472-70.144-43.35-70.144-57.65 0-6.27-2.616-9.308-4.382-11.598-2.263-2.934-3.133-4.64 4.675-10.345 13.9-10.154 17.21-22.388 11.514-41.22-1.768-5.848-7.76-2.69-11.515-5.344-2.923-2.065-.68-4.306-2.757-6.586-3.853-4.224-9.377-8.58-5.315-12.18 9.07-8.04-33.527-66.51-33.527-66.51s-27.558-24.012-27.558-33.522c0-4.27-5.722 0-5.722-26.924z" fill-opacity=".565" fill="#2B44F2"/>
    <g fill="#484040">
      <path d="M478.32 383.29l23.745-11.074 9.655 20.707-23.745 11.072zM495.218 422.955l22.78-9.204 7.072 17.506-22.78 9.203z"/>
    </g>
    <path d="M16.896-3.553L.126 575.484h15.312l-.626-19.6 43.827-22.545 30.86-20.917 44.13-56.317 36.126-57.412 36.926-1.486-.205-79.862h-62.78l-.142 82.265h11.13l-49.997 74.564 20.674-65.465 4.723-38.223-.846-50.925-2.29-22.117 102.124-28.176-2.388-12.673-98.207 27.736-9.146-51.022-2.384-77.09s-.192-11.327-11.53-11.327c-11.336 0-37.144-1.188-37.144-1.188l-44.22-.534-.794 11.4 80.267 2.313 2.78 76.49 6.266 49.643 3.185 47.032-1.1 44.314-1.493 25.218L80.11 500.89l-18.846 16.423-45.826 21.8L27.268-3.548l-10.372-.003z" fill="#D8D8D8"/>
    <g fill="#4A2A2E">
      <path d="M399.375 344.178l10.572 3.883-3.48 10.02 3.515 8.407 8.403 3.02-3.265 9.85-12.67-3.217-9.504-16.55M431.88 436.343l10.72-3.448 3.427 10.038 7.946 4.46 8.48-2.794 3.492 9.77-11.964 5.268-17.677-7.19M544.558 475.72l3.137-10.817 10.238 2.774 8.14-4.094 2.426-8.593 10.053 2.57-2.324 12.864-15.848 10.634M558.88 420.94l.428-11.256 10.605.215 6.908-5.943.276-8.925 10.377.062.857 13.044-12.804 14.152M549.092 380.353l-4.37-10.38 9.702-4.288 3.75-8.304-3.522-8.204 9.43-4.33 6.29 11.46-5.623 18.238M423.375 378.003l11.572 4.878-2.48 10.02 3.515 8.407 7.403 2.025-2.265 11.84-14.67-5.206-8.504-15.555"/>
    </g>
    <path fill="#744646" d="M333.476 252.584l28.33 27.36-15.128 15.666-28.33-27.36z"/>
    <path d="M241.992 259.118l11.62 12.904 23.737-21.375-37.884-42.073-23.738 21.374 12.675 14.078-9.628 8.67 13.588 15.09 9.63-8.668z" fill="#3B282C"/>
    <g fill="#4B3333">
      <path d="M313.975 132.502l9.74 24.107-3.69 1.49-9.74-24.107zM308.975 134.492l9.74 24.107-3.69 1.49-9.74-24.108zM303.975 136.482l9.74 24.106-3.69 1.49-9.74-24.106zM318.975 130.513l9.74 24.106-3.69 1.49-9.74-24.107zM323.975 128.523l9.74 24.107-3.69 1.49-9.74-24.107zM328.975 126.533l9.74 24.107-3.69 1.49-9.74-24.107zM333.975 124.543l9.74 24.107-3.69 1.49-9.74-24.106zM338.975 122.554l9.74 24.106-3.69 1.49-9.74-24.106zM343.975 120.564l9.74 24.107-3.69 1.49-9.74-24.106zM348.975 118.574l9.74 24.107-3.69 1.49-9.74-24.106zM353.975 116.584l9.74 24.107-3.69 1.492-9.74-24.107zM358.975 114.595l9.74 24.106-3.69 1.492-9.74-24.107zM363.975 112.605l9.74 24.107-3.69 1.49-9.74-24.107zM368.975 110.615l9.74 24.107-3.69 1.49-9.74-24.107zM373.975 108.625l9.74 24.107-3.69 1.49-9.74-24.106z"/>
    </g>
    <g fill="#623535">
      <path d="M498.21 287.98l7.865 4.36 6.128 3.397-2.412 4.35-13.993-7.756"/>
      <path d="M514.35 298.7l1.25 8.906.976 6.938-4.926.692-2.226-15.844"/>
      <path d="M515.2 316.615l-6.017 6.684-4.688 5.205-3.696-3.328 10.705-11.89"/>
      <path d="M499.923 328.598l-8.6-2.63-6.7-2.048 1.454-4.757 15.3 4.678"/>
      <path d="M481.085 321.264l-1.716-8.83-1.338-6.876 4.883-.95 3.053 15.707"/>
      <path d="M478.31 301.505l8.11-7.304 6.32-5.688 3.415 3.793-14.43 12.993"/>
    </g>
    <path d="M501.272 301.042c-.6-1.81-1.3-4.922-1.3-4.922s-4.373 2.456-6.62 4.848c-2.246 2.39-2.492 4.783-2.492 4.783l-.46 1.372 3.2-.934.9 1.61.95-2.344 1.13 1.42.59-1.96 1.237 3.098 1.63-1.75 1.745 1.593 1.506-3.748s-1.416-1.255-2.016-3.065z" fill="#EAC948"/>
    <path d="M490.708 307.192l.716 7.785s-.04 2.188 1.59 3.033c.483.25 1.396.076 2.145.076 3.277 0 4.655-.076 4.655-.076s4.546-1.97 4.546-3.65v-3.248l-1.03-7.034-1.475 3.47-1.764-1.485-1.497 1.41-1.417-2.485-.477 1.674-1.153-1.237-.814 1.923-1.026-1.404-3 1.248z" fill="#EE843F"/>
    <path d="M496.336 316.95c-1.203 0-3.796-1.05-2.607-2.772 1.187-1.723 3.3-4.384 3.3-4.384s1.574 2.382 2.74 4.384c1.164 2.002-2.23 2.772-3.434 2.772z" fill="#BC2C2C"/>
    <g fill="#623535">
      <path d="M290.002 196.317l7.866 4.36 6.128 3.396-1.998 3.605-13.994-7.757"/>
      <path d="M305.927 204.502l1.252 8.907.974 6.936-4.08.574-2.228-15.845"/>
      <path d="M306.884 219.682l-6.018 6.684-4.688 5.207-3.062-2.758 10.706-11.89M292.048 231.03l-8.6-2.63-6.7-2.047 1.204-3.94 15.3 4.677"/>
      <path d="M273.504 225.902l-1.716-8.83-1.337-6.876 4.046-.786 3.053 15.706"/>
      <path d="M270.602 209.3l8.112-7.303 6.32-5.69 2.828 3.143-14.43 12.993"/>
    </g>
    <path d="M293.272 207.802c-.6-1.5-1.3-4.077-1.3-4.077s-4.373 2.034-6.62 4.016c-2.246 1.982-2.492 3.963-2.492 3.963l-.46 1.136 3.2-.775.9 1.334.95-1.943 1.13 1.176.59-1.624 1.237 2.566 1.63-1.45 1.745 1.32 1.506-3.105s-1.416-1.04-2.016-2.538z" fill="#EAC948"/>
    <path d="M282.708 212.897l.716 6.45s-.04 1.81 1.59 2.512c.483.206 1.396.06 2.145.06 3.277 0 4.655-.06 4.655-.06s4.546-1.634 4.546-3.024v-2.692l-1.03-5.827-1.475 2.875-1.764-1.23-1.497 1.167-1.417-2.06-.477 1.388-1.153-1.025-.814 1.593-1.026-1.163-3 1.034z" fill="#EE843F"/>
    <path d="M288.336 220.98c-1.203 0-3.796-.87-2.607-2.296 1.187-1.427 3.3-3.632 3.3-3.632s1.574 1.974 2.74 3.632c1.164 1.658-2.23 2.296-3.434 2.296z" fill="#BC2C2C"/>
    <path fill="#5D635A" d="M427.547 203.98l-17.688 26.28 28.923-8.974"/>
    <path d="M428 204.926v24.038" stroke="#7B4444" stroke-width="2" stroke-linecap="square"/>
    <path fill="#A5B7AA" d="M426.902 204.048l22.375-7.527 18.15 27.588-21.948 7.22"/>
    <path fill="#5D635A" d="M581.48 309.803l-12.855 18.136 21.02-6.193"/>
    <path d="M581.808 310.456v16.59" stroke="#7B4444" stroke-width="2" stroke-linecap="square"/>
    <path fill="#90A194" d="M581.01 309.85l16.26-5.195 13.19 19.04-15.95 4.982"/>
    <path fill="#5D635A" d="M640.48 358.878l-12.855 18.137 21.02-6.193"/>
    <path d="M640.808 359.532v16.59" stroke="#7B4444" stroke-width="2" stroke-linecap="square"/>
    <path fill="#90A194" d="M640.01 358.926l16.26-5.195 13.19 19.04-15.95 4.982"/>
    <path fill="#5D635A" d="M538.48 297.784l-12.855 18.137 21.02-6.192"/>
    <path d="M538.808 298.437v16.59" stroke="#7B4444" stroke-width="2" stroke-linecap="square"/>
    <path fill="#90A194" d="M538.01 297.83l16.26-5.194 13.19 19.04-15.95 4.982"/>
    <g>
      <path fill="#5D635A" d="M613.48 333.84l-12.855 18.137 21.02-6.193"/>
      <path d="M613.808 334.493v16.59" stroke="#7B4444" stroke-width="2" stroke-linecap="square"/>
      <path fill="#90A194" d="M613.01 333.887l16.26-5.195 13.19 19.04-15.95 4.982"/>
    </g>
    <g>
      <path d="M408.35 46.844l4.97 14.59h-19.054l4.97-14.59V15.672h9.113v31.172z" fill="#542828"/>
      <path d="M433.06 42.516c3.523-1.742 5.94-5.328 5.94-9.47 0-3.73-1.96-7.012-4.924-8.9C437.04 22.26 439 18.98 439 15.25c0-5.852-4.822-10.595-10.77-10.595-1.215 0-2.384.2-3.474.564.106-.597.16-1.21.16-1.836 0-5.85-4.82-10.593-10.768-10.593-3.5 0-6.61 1.643-8.577 4.187-1.762-3.486-5.42-5.88-9.647-5.88-5.827 0-10.574 4.552-10.763 10.24-.41-.048-.827-.07-1.25-.07-6.175 0-11.182 5.12-11.182 11.44 0 1.886.446 3.666 1.237 5.235-.79 1.473-1.237 3.152-1.237 4.934 0 .405.023.805.068 1.2-3.027 1.874-5.04 5.19-5.04 8.97 0 3.718 1.95 6.99 4.897 8.88 6.59-6.137 17.523-10.152 29.897-10.152 12.767 0 24 4.273 30.51 10.742z" fill="#63A35A"/>
      <path d="M339.592 46.844l4.97 14.59H325.51l4.97-14.59V15.672h9.112v31.172z" fill="#542828"/>
      <path d="M364.304 42.516c3.522-1.742 5.94-5.328 5.94-9.47 0-3.73-1.962-7.012-4.925-8.9 2.962-1.886 4.923-5.167 4.923-8.897 0-5.852-4.822-10.595-10.77-10.595-1.215 0-2.384.2-3.474.564.105-.597.16-1.21.16-1.836 0-5.85-4.822-10.593-10.77-10.593-3.5 0-6.61 1.643-8.576 4.187-1.763-3.486-5.422-5.88-9.648-5.88-5.828 0-10.574 4.552-10.764 10.24-.41-.048-.826-.07-1.248-.07-6.177 0-11.184 5.12-11.184 11.44 0 1.886.447 3.666 1.237 5.235-.79 1.473-1.237 3.152-1.237 4.934 0 .405.024.805.07 1.2-3.03 1.874-5.04 5.19-5.04 8.97 0 3.718 1.948 6.99 4.896 8.88 6.588-6.137 17.523-10.152 29.897-10.152 12.767 0 24 4.273 30.51 10.742z" fill="#63A35A"/>
      <g>
        <path d="M359.473 64.64l4.97 14.592h-19.052l4.97-14.59V33.468h9.113v31.17z" fill="#542828"/>
        <path d="M384.185 60.313c3.522-1.742 5.94-5.33 5.94-9.47 0-3.732-1.96-7.012-4.924-8.9 2.964-1.886 4.924-5.167 4.924-8.898 0-5.85-4.82-10.593-10.77-10.593-1.215 0-2.383.198-3.474.564.106-.596.16-1.21.16-1.835 0-5.85-4.82-10.592-10.768-10.592-3.5 0-6.61 1.642-8.577 4.186-1.763-3.486-5.42-5.88-9.648-5.88-5.827 0-10.574 4.552-10.763 10.24-.41-.048-.826-.072-1.248-.072-6.177 0-11.184 5.122-11.184 11.44 0 1.888.446 3.668 1.237 5.237-.79 1.472-1.238 3.15-1.238 4.933 0 .405.023.805.068 1.2-3.027 1.874-5.038 5.19-5.038 8.97 0 3.718 1.948 6.99 4.895 8.88 6.59-6.138 17.523-10.152 29.898-10.152 12.766 0 24 4.274 30.51 10.743z" fill="#63A35A"/>
      </g>
    </g>
    <g>
      <path d="M691.592 485.522l4.97 14.59H677.51l4.97-14.59V454.35h9.112v31.172z" fill="#542828"/>
      <path d="M716.304 481.194c3.522-1.742 5.94-5.328 5.94-9.47 0-3.73-1.962-7.012-4.925-8.9 2.962-1.886 4.923-5.167 4.923-8.897 0-5.85-4.822-10.594-10.77-10.594-1.215 0-2.384.2-3.474.564.105-.596.16-1.21.16-1.835 0-5.85-4.822-10.593-10.77-10.593-3.5 0-6.61 1.64-8.576 4.185-1.763-3.486-5.422-5.88-9.648-5.88-5.828 0-10.574 4.552-10.764 10.24-.41-.048-.826-.07-1.248-.07-6.177 0-11.184 5.12-11.184 11.44 0 1.886.447 3.666 1.237 5.235-.79 1.473-1.237 3.152-1.237 4.934 0 .405.024.805.07 1.2-3.03 1.874-5.04 5.19-5.04 8.97 0 3.718 1.948 6.99 4.896 8.88 6.588-6.137 17.523-10.152 29.897-10.152 12.767 0 24 4.273 30.51 10.742z" fill="#63A35A"/>
    </g>
    <g>
      <path d="M704.35 538.604l4.97 14.592h-19.054l4.97-14.592v-31.172h9.113v31.172z" fill="#542828"/>
      <path d="M729.06 534.276c3.523-1.742 5.94-5.328 5.94-9.47 0-3.73-1.96-7.012-4.924-8.9 2.963-1.886 4.924-5.166 4.924-8.897 0-5.852-4.822-10.595-10.77-10.595-1.215 0-2.384.2-3.474.564.106-.597.16-1.21.16-1.836 0-5.85-4.82-10.593-10.768-10.593-3.5 0-6.61 1.643-8.577 4.187-1.762-3.486-5.42-5.88-9.647-5.88-5.827 0-10.574 4.552-10.763 10.24-.41-.047-.827-.07-1.25-.07-6.175 0-11.182 5.12-11.182 11.44 0 1.886.446 3.666 1.237 5.235-.79 1.473-1.237 3.152-1.237 4.934 0 .405.023.805.068 1.2-3.027 1.874-5.04 5.19-5.04 8.97 0 3.72 1.95 6.99 4.897 8.88 6.59-6.137 17.523-10.152 29.897-10.152 12.767 0 24 4.273 30.51 10.742z" fill="#63A35A"/>
      <path d="M635.592 538.604l4.97 14.592H621.51l4.97-14.592v-31.172h9.112v31.172z" fill="#542828"/>
      <path d="M660.304 534.276c3.522-1.742 5.94-5.328 5.94-9.47 0-3.73-1.962-7.012-4.925-8.9 2.962-1.886 4.923-5.166 4.923-8.897 0-5.852-4.822-10.595-10.77-10.595-1.215 0-2.384.2-3.474.564.105-.597.16-1.21.16-1.836 0-5.85-4.822-10.593-10.77-10.593-3.5 0-6.61 1.643-8.576 4.187-1.763-3.486-5.422-5.88-9.648-5.88-5.828 0-10.574 4.552-10.764 10.24-.41-.047-.826-.07-1.248-.07-6.177 0-11.184 5.12-11.184 11.44 0 1.886.447 3.666 1.237 5.235-.79 1.473-1.237 3.152-1.237 4.934 0 .405.024.805.07 1.2-3.03 1.874-5.04 5.19-5.04 8.97 0 3.72 1.948 6.99 4.896 8.88 6.588-6.137 17.523-10.152 29.897-10.152 12.767 0 24 4.273 30.51 10.742z" fill="#63A35A"/>
      <g>
        <path d="M655.473 556.4l4.97 14.592h-19.052l4.97-14.59v-31.173h9.113v31.17z" fill="#542828"/>
        <path d="M680.185 552.073c3.522-1.742 5.94-5.33 5.94-9.47 0-3.732-1.96-7.012-4.924-8.9 2.964-1.886 4.924-5.167 4.924-8.898 0-5.85-4.82-10.593-10.77-10.593-1.215 0-2.383.198-3.474.564.106-.596.16-1.21.16-1.835 0-5.85-4.82-10.592-10.768-10.592-3.5 0-6.61 1.642-8.577 4.186-1.763-3.486-5.42-5.88-9.648-5.88-5.827 0-10.574 4.552-10.763 10.24-.41-.048-.826-.072-1.248-.072-6.177 0-11.184 5.123-11.184 11.44 0 1.888.446 3.668 1.237 5.237-.79 1.472-1.238 3.15-1.238 4.933 0 .405.023.805.068 1.2-3.027 1.874-5.038 5.19-5.038 8.97 0 3.718 1.948 6.99 4.895 8.88 6.59-6.138 17.523-10.152 29.898-10.152 12.766 0 24 4.274 30.51 10.743z" fill="#63A35A"/>
      </g>
    </g>
    <g>
      <path d="M663.35 15.796l4.97 14.59h-19.054l4.97-14.59v-31.172h9.113v31.172z" fill="#542828"/>
      <path d="M688.06 11.468c3.523-1.742 5.94-5.328 5.94-9.47 0-3.73-1.96-7.012-4.924-8.9C692.04-8.787 694-12.068 694-15.798c0-5.85-4.822-10.593-10.77-10.593-1.215 0-2.384.2-3.474.564.106-.595.16-1.208.16-1.834 0-5.85-4.82-10.593-10.768-10.593-3.5 0-6.61 1.642-8.577 4.186-1.762-3.487-5.42-5.882-9.647-5.882-5.827 0-10.574 4.553-10.763 10.24-.41-.047-.827-.07-1.25-.07-6.175 0-11.182 5.122-11.182 11.44 0 1.887.446 3.667 1.237 5.236-.79 1.473-1.237 3.152-1.237 4.934 0 .405.023.805.068 1.2-3.027 1.874-5.04 5.19-5.04 8.97 0 3.718 1.95 6.99 4.897 8.88C634.243 4.74 645.176.726 657.55.726c12.767 0 24 4.273 30.51 10.742z" fill="#63A35A"/>
      <path d="M594.592 15.796l4.97 14.59H580.51l4.97-14.59v-31.172h9.112v31.172z" fill="#542828"/>
      <path d="M619.304 11.468c3.522-1.742 5.94-5.328 5.94-9.47 0-3.73-1.962-7.012-4.925-8.9 2.962-1.886 4.923-5.167 4.923-8.897 0-5.85-4.822-10.593-10.77-10.593-1.215 0-2.384.2-3.474.564.105-.595.16-1.208.16-1.834 0-5.85-4.822-10.593-10.77-10.593-3.5 0-6.61 1.642-8.576 4.186-1.763-3.487-5.422-5.882-9.648-5.882-5.828 0-10.574 4.553-10.764 10.24-.41-.047-.826-.07-1.248-.07-6.177 0-11.184 5.122-11.184 11.44 0 1.887.447 3.667 1.237 5.236-.79 1.473-1.237 3.152-1.237 4.934 0 .405.024.805.07 1.2-3.03 1.874-5.04 5.19-5.04 8.97 0 3.718 1.948 6.99 4.896 8.88C565.484 4.74 576.42.726 588.793.726c12.767 0 24 4.273 30.51 10.742z" fill="#63A35A"/>
      <g>
        <path d="M614.473 33.593l4.97 14.59h-19.052l4.97-14.59V2.42h9.113v31.173z" fill="#542828"/>
        <path d="M639.185 29.265c3.522-1.742 5.94-5.33 5.94-9.47 0-3.732-1.96-7.012-4.924-8.9 2.964-1.886 4.924-5.167 4.924-8.898 0-5.85-4.82-10.593-10.77-10.593-1.215 0-2.383.198-3.474.564.106-.596.16-1.21.16-1.835 0-5.85-4.82-10.593-10.768-10.593-3.5 0-6.61 1.642-8.577 4.186-1.763-3.486-5.42-5.88-9.648-5.88-5.827 0-10.574 4.552-10.763 10.24-.41-.048-.826-.072-1.248-.072-6.177 0-11.184 5.122-11.184 11.44 0 1.888.446 3.668 1.237 5.237-.79 1.474-1.238 3.153-1.238 4.935 0 .405.023.805.068 1.2-3.027 1.874-5.038 5.19-5.038 8.97 0 3.718 1.948 6.99 4.895 8.88 6.59-6.138 17.523-10.152 29.898-10.152 12.766 0 24 4.273 30.51 10.742z" fill="#63A35A"/>
      </g>
      <g>
        <path d="M753.35 50.85l4.97 14.592h-19.054l4.97-14.59V19.678h9.113v31.17z" fill="#542828"/>
        <path d="M778.06 46.522c3.523-1.74 5.94-5.328 5.94-9.47 0-3.73-1.96-7.01-4.924-8.9 2.963-1.886 4.924-5.166 4.924-8.897 0-5.85-4.822-10.593-10.77-10.593-1.215 0-2.384.198-3.474.563.106-.596.16-1.21.16-1.835 0-5.85-4.82-10.593-10.768-10.593-3.5 0-6.61 1.642-8.577 4.186-1.762-3.486-5.42-5.88-9.647-5.88-5.827 0-10.574 4.552-10.763 10.24-.41-.047-.827-.07-1.25-.07-6.175 0-11.182 5.12-11.182 11.44 0 1.886.446 3.666 1.237 5.235-.79 1.473-1.237 3.152-1.237 4.934 0 .405.023.805.068 1.2-3.027 1.874-5.04 5.19-5.04 8.97 0 3.72 1.95 6.99 4.897 8.88 6.59-6.137 17.523-10.152 29.897-10.152 12.767 0 24 4.273 30.51 10.742z" fill="#63A35A"/>
        <path d="M684.592 50.85l4.97 14.592H670.51l4.97-14.59V19.678h9.112v31.17z" fill="#542828"/>
        <path d="M709.304 46.522c3.522-1.74 5.94-5.328 5.94-9.47 0-3.73-1.962-7.01-4.925-8.9 2.962-1.886 4.923-5.166 4.923-8.897 0-5.85-4.822-10.593-10.77-10.593-1.215 0-2.384.198-3.474.563.105-.596.16-1.21.16-1.835 0-5.85-4.822-10.593-10.77-10.593-3.5 0-6.61 1.642-8.576 4.186-1.763-3.486-5.422-5.88-9.648-5.88-5.828 0-10.574 4.552-10.764 10.24-.41-.047-.826-.07-1.248-.07-6.177 0-11.184 5.12-11.184 11.44 0 1.886.447 3.666 1.237 5.235-.79 1.473-1.237 3.152-1.237 4.934 0 .405.024.805.07 1.2-3.03 1.874-5.04 5.19-5.04 8.97 0 3.72 1.948 6.99 4.896 8.88 6.588-6.137 17.523-10.152 29.897-10.152 12.767 0 24 4.273 30.51 10.742z" fill="#63A35A"/>
        <g>
          <path d="M704.473 68.647l4.97 14.59h-19.052l4.97-14.59V37.475h9.113v31.172z" fill="#542828"/>
          <path d="M729.185 64.32c3.522-1.743 5.94-5.33 5.94-9.472 0-3.73-1.96-7.01-4.924-8.898 2.964-1.887 4.924-5.168 4.924-8.898 0-5.85-4.82-10.594-10.77-10.594-1.215 0-2.383.198-3.474.564.106-.596.16-1.21.16-1.835 0-5.85-4.82-10.593-10.768-10.593-3.5 0-6.61 1.642-8.577 4.186-1.763-3.486-5.42-5.88-9.648-5.88-5.827 0-10.574 4.552-10.763 10.24-.41-.048-.826-.072-1.248-.072-6.177 0-11.184 5.123-11.184 11.44 0 1.888.446 3.668 1.237 5.237-.79 1.473-1.238 3.152-1.238 4.934 0 .404.023.804.068 1.198-3.027 1.875-5.038 5.192-5.038 8.97 0 3.72 1.948 6.99 4.895 8.88 6.59-6.137 17.523-10.15 29.898-10.15 12.766 0 24 4.272 30.51 10.74z" fill="#63A35A"/>
        </g>
      </g>
      <g>
        <path d="M804.35 105.936l4.97 14.59h-19.054l4.97-14.59V74.764h9.113v31.172z" fill="#542828"/>
        <path d="M829.06 101.607c3.523-1.74 5.94-5.328 5.94-9.47 0-3.73-1.96-7.01-4.924-8.9C833.04 81.352 835 78.072 835 74.34c0-5.85-4.822-10.593-10.77-10.593-1.215 0-2.384.198-3.474.563.106-.596.16-1.21.16-1.834 0-5.85-4.82-10.594-10.768-10.594-3.5 0-6.61 1.643-8.577 4.187-1.762-3.487-5.42-5.883-9.647-5.883-5.827 0-10.574 4.553-10.763 10.24-.41-.046-.827-.07-1.25-.07-6.175 0-11.182 5.122-11.182 11.44 0 1.887.446 3.667 1.237 5.236-.79 1.474-1.237 3.153-1.237 4.934 0 .406.023.806.068 1.2-3.027 1.874-5.04 5.19-5.04 8.97 0 3.72 1.95 6.99 4.897 8.88 6.59-6.137 17.523-10.15 29.897-10.15 12.767 0 24 4.27 30.51 10.74z" fill="#63A35A"/>
        <path d="M735.592 105.936l4.97 14.59H721.51l4.97-14.59V74.764h9.112v31.172z" fill="#542828"/>
        <path d="M760.304 101.607c3.522-1.74 5.94-5.328 5.94-9.47 0-3.73-1.962-7.01-4.925-8.9 2.962-1.886 4.923-5.166 4.923-8.897 0-5.85-4.822-10.593-10.77-10.593-1.215 0-2.384.198-3.474.563.105-.596.16-1.21.16-1.834 0-5.85-4.822-10.594-10.77-10.594-3.5 0-6.61 1.643-8.576 4.187-1.763-3.487-5.422-5.883-9.648-5.883-5.828 0-10.574 4.553-10.764 10.24-.41-.046-.826-.07-1.248-.07-6.177 0-11.184 5.122-11.184 11.44 0 1.887.447 3.667 1.237 5.236-.79 1.474-1.237 3.153-1.237 4.934 0 .406.024.806.07 1.2-3.03 1.874-5.04 5.19-5.04 8.97 0 3.72 1.948 6.99 4.896 8.88 6.588-6.137 17.523-10.15 29.897-10.15 12.767 0 24 4.27 30.51 10.74z" fill="#63A35A"/>
        <g>
          <path d="M755.473 123.732l4.97 14.592h-19.052l4.97-14.592V92.56h9.113v31.172z" fill="#542828"/>
          <path d="M780.185 119.404c3.522-1.742 5.94-5.328 5.94-9.47 0-3.73-1.96-7.012-4.924-8.9 2.964-1.886 4.924-5.166 4.924-8.897 0-5.85-4.82-10.594-10.77-10.594-1.215 0-2.383.2-3.474.564.106-.596.16-1.21.16-1.835 0-5.85-4.82-10.593-10.768-10.593-3.5 0-6.61 1.64-8.577 4.185-1.763-3.486-5.42-5.88-9.648-5.88-5.827 0-10.574 4.552-10.763 10.24-.41-.047-.826-.07-1.248-.07-6.177 0-11.184 5.12-11.184 11.44 0 1.886.446 3.666 1.237 5.235-.79 1.473-1.238 3.152-1.238 4.934 0 .405.023.805.068 1.2-3.027 1.874-5.038 5.19-5.038 8.97 0 3.72 1.948 6.99 4.895 8.88 6.59-6.137 17.523-10.152 29.898-10.152 12.766 0 24 4.273 30.51 10.742z" fill="#63A35A"/>
        </g>
      </g>
      <g>
        <path d="M806.592 151.005l4.97 14.59H792.51l4.97-14.59v-31.172h9.112v31.172z" fill="#542828"/>
        <path d="M831.304 146.677c3.522-1.742 5.94-5.328 5.94-9.47 0-3.73-1.962-7.012-4.925-8.9 2.962-1.886 4.923-5.167 4.923-8.897 0-5.85-4.822-10.594-10.77-10.594-1.215 0-2.384.2-3.474.564.105-.596.16-1.21.16-1.835 0-5.85-4.822-10.593-10.77-10.593-3.5 0-6.61 1.642-8.576 4.186-1.763-3.486-5.422-5.88-9.648-5.88-5.828 0-10.574 4.552-10.764 10.24-.41-.048-.826-.07-1.248-.07-6.177 0-11.184 5.12-11.184 11.44 0 1.886.447 3.666 1.237 5.235-.79 1.473-1.237 3.152-1.237 4.934 0 .405.024.805.07 1.2-3.03 1.874-5.04 5.19-5.04 8.97 0 3.718 1.948 6.99 4.896 8.88 6.588-6.137 17.523-10.152 29.897-10.152 12.767 0 24 4.273 30.51 10.742z" fill="#63A35A"/>
        <g fill="#63A35A">
          <path d="M851.185 164.474c3.522-1.742 5.94-5.33 5.94-9.47 0-3.732-1.96-7.012-4.924-8.9 2.964-1.886 4.924-5.167 4.924-8.898 0-5.85-4.82-10.593-10.77-10.593-1.215 0-2.383.198-3.474.564.106-.596.16-1.21.16-1.835 0-5.85-4.82-10.593-10.768-10.593-3.5 0-6.61 1.64-8.577 4.185-1.763-3.486-5.42-5.88-9.648-5.88-5.827 0-10.574 4.552-10.763 10.24-.41-.048-.826-.072-1.248-.072-6.177 0-11.184 5.122-11.184 11.44 0 1.888.446 3.668 1.237 5.236-.79 1.473-1.238 3.152-1.238 4.934 0 .405.023.805.068 1.2-3.027 1.874-5.038 5.19-5.038 8.97 0 3.718 1.948 6.99 4.895 8.88 6.59-6.138 17.523-10.152 29.898-10.152 12.766 0 24 4.273 30.51 10.742z"/>
        </g>
      </g>
    </g>
    <g>
      <path d="M543.713 63.33l5.35 16.285h-20.51l5.35-16.284V28.54h9.81v34.79z" fill="#542828"/>
      <path d="M570.315 58.5c3.792-1.944 6.393-5.947 6.393-10.57 0-4.164-2.11-7.825-5.3-9.93 3.19-2.108 5.3-5.77 5.3-9.932 0-6.53-5.19-11.823-11.593-11.823-1.308 0-2.567.22-3.74.63.114-.666.173-1.35.173-2.05 0-6.53-5.19-11.822-11.593-11.822-3.767 0-7.115 1.833-9.233 4.672-1.898-3.89-5.835-6.564-10.386-6.564-6.273 0-11.382 5.083-11.586 11.43-.44-.052-.89-.08-1.344-.08-6.65 0-12.04 5.718-12.04 12.77 0 2.106.482 4.092 1.333 5.843-.852 1.645-1.333 3.52-1.333 5.507 0 .453.025.9.073 1.338-3.258 2.093-5.424 5.795-5.424 10.012 0 4.15 2.098 7.802 5.27 9.91 7.093-6.848 18.864-11.33 32.185-11.33 13.744 0 25.837 4.77 32.845 11.99z" fill="#63A35A"/>
      <path d="M469.696 63.33l5.35 16.285h-20.51l5.35-16.284V28.54h9.81v34.79z" fill="#542828"/>
      <path d="M496.3 58.5c3.79-1.944 6.392-5.947 6.392-10.57 0-4.164-2.11-7.825-5.3-9.93 3.19-2.108 5.3-5.77 5.3-9.932 0-6.53-5.19-11.823-11.593-11.823-1.31 0-2.568.22-3.74.63.112-.666.172-1.35.172-2.05 0-6.53-5.19-11.822-11.593-11.822-3.77 0-7.117 1.833-9.234 4.672-1.898-3.89-5.836-6.564-10.386-6.564-6.273 0-11.383 5.083-11.587 11.43-.44-.052-.89-.08-1.344-.08-6.65 0-12.04 5.718-12.04 12.77 0 2.106.48 4.092 1.332 5.843-.85 1.645-1.33 3.52-1.33 5.507 0 .453.024.9.072 1.338C428.164 40.01 426 43.713 426 47.93c0 4.15 2.097 7.802 5.27 9.91 7.093-6.848 18.863-11.33 32.184-11.33 13.743 0 25.836 4.77 32.845 11.99z" fill="#63A35A"/>
      <path d="M491.1 83.193l5.35 16.285h-20.51l5.35-16.285v-34.79h9.81v34.79z" fill="#542828"/>
      <path d="M517.7 78.362c3.792-1.943 6.394-5.947 6.394-10.57 0-4.163-2.11-7.824-5.3-9.93 3.19-2.107 5.3-5.768 5.3-9.932 0-6.53-5.19-11.823-11.593-11.823-1.308 0-2.566.22-3.74.63.115-.666.174-1.35.174-2.05 0-6.528-5.19-11.82-11.593-11.82-3.767 0-7.114 1.832-9.232 4.67-1.898-3.89-5.836-6.563-10.386-6.563-6.273 0-11.382 5.08-11.586 11.43-.442-.053-.89-.08-1.344-.08-6.65 0-12.04 5.717-12.04 12.77 0 2.104.48 4.09 1.333 5.842-.85 1.644-1.332 3.518-1.332 5.507 0 .452.025.898.073 1.338-3.258 2.093-5.424 5.795-5.424 10.012 0 4.15 2.098 7.802 5.27 9.912 7.093-6.85 18.864-11.33 32.184-11.33 13.744 0 25.837 4.77 32.845 11.988z" fill="#63A35A"/>
      <g>
        <path d="M640.597 102.454l5.35 16.284h-20.51l5.35-16.284v-34.79h9.81v34.79z" fill="#542828"/>
        <path d="M667.2 97.623c3.79-1.944 6.392-5.947 6.392-10.57 0-4.164-2.11-7.825-5.3-9.93 3.19-2.108 5.3-5.77 5.3-9.932 0-6.53-5.19-11.822-11.593-11.822-1.31 0-2.568.22-3.74.63.113-.667.172-1.35.172-2.05 0-6.53-5.19-11.822-11.593-11.822-3.77 0-7.116 1.833-9.234 4.672-1.898-3.89-5.836-6.564-10.386-6.564-6.273 0-11.382 5.082-11.586 11.43-.442-.053-.89-.08-1.344-.08-6.65 0-12.04 5.717-12.04 12.77 0 2.105.48 4.09 1.333 5.842-.85 1.645-1.332 3.52-1.332 5.507 0 .452.026.9.074 1.338-3.258 2.094-5.424 5.796-5.424 10.013 0 4.15 2.098 7.802 5.27 9.91 7.093-6.848 18.864-11.33 32.184-11.33 13.744 0 25.836 4.77 32.845 11.99z" fill="#63A35A"/>
        <path d="M566.58 102.454l5.35 16.284h-20.51l5.35-16.284v-34.79h9.81v34.79z" fill="#542828"/>
        <path d="M593.182 97.623c3.792-1.944 6.394-5.947 6.394-10.57 0-4.164-2.11-7.825-5.3-9.93 3.19-2.108 5.3-5.77 5.3-9.932 0-6.53-5.19-11.822-11.593-11.822-1.31 0-2.567.22-3.74.63.113-.667.173-1.35.173-2.05 0-6.53-5.19-11.822-11.593-11.822-3.768 0-7.116 1.833-9.233 4.672-1.898-3.89-5.836-6.564-10.386-6.564-6.273 0-11.383 5.082-11.587 11.43-.44-.053-.89-.08-1.344-.08-6.65 0-12.04 5.717-12.04 12.77 0 2.105.482 4.09 1.333 5.842-.85 1.645-1.332 3.52-1.332 5.507 0 .452.025.9.074 1.338-3.26 2.094-5.424 5.796-5.424 10.013 0 4.15 2.097 7.802 5.27 9.91 7.093-6.848 18.863-11.33 32.184-11.33 13.743 0 25.836 4.77 32.844 11.99z" fill="#63A35A"/>
        <g>
          <path d="M587.983 122.316l5.35 16.285h-20.51l5.35-16.284v-34.79h9.81v34.79z" fill="#542828"/>
          <path d="M614.585 117.485c3.79-1.943 6.393-5.947 6.393-10.57 0-4.163-2.11-7.824-5.3-9.93 3.19-2.107 5.3-5.768 5.3-9.932 0-6.53-5.19-11.823-11.593-11.823-1.31 0-2.567.22-3.74.63.114-.666.173-1.35.173-2.05 0-6.528-5.19-11.82-11.593-11.82-3.768 0-7.116 1.832-9.233 4.67-1.898-3.89-5.836-6.563-10.386-6.563-6.273 0-11.383 5.08-11.586 11.428-.442-.05-.89-.078-1.344-.078-6.65 0-12.04 5.717-12.04 12.77 0 2.104.48 4.09 1.332 5.842-.85 1.643-1.33 3.517-1.33 5.505 0 .453.024.9.072 1.34-3.258 2.09-5.424 5.793-5.424 10.01 0 4.15 2.098 7.802 5.27 9.912 7.093-6.85 18.863-11.33 32.184-11.33 13.743 0 25.836 4.77 32.845 11.988z" fill="#63A35A"/>
        </g>
      </g>
      <g>
        <path d="M695.498 163.933l5.35 16.284h-20.51l5.35-16.284v-34.79h9.81v34.79z" fill="#542828"/>
        <path d="M722.1 159.102c3.79-1.944 6.393-5.947 6.393-10.57 0-4.164-2.11-7.825-5.3-9.93 3.19-2.108 5.3-5.77 5.3-9.932 0-6.53-5.19-11.823-11.593-11.823-1.31 0-2.567.22-3.74.63.114-.667.173-1.35.173-2.05 0-6.53-5.19-11.822-11.593-11.822-3.768 0-7.116 1.833-9.233 4.672-1.898-3.89-5.836-6.564-10.386-6.564-6.272 0-11.382 5.082-11.585 11.43-.442-.053-.89-.08-1.344-.08-6.648 0-12.038 5.717-12.038 12.77 0 2.105.48 4.09 1.33 5.842-.85 1.645-1.33 3.52-1.33 5.507 0 .452.025.9.073 1.338-3.26 2.093-5.424 5.795-5.424 10.012 0 4.15 2.098 7.802 5.27 9.91 7.094-6.85 18.864-11.33 32.185-11.33 13.743 0 25.836 4.77 32.845 11.99z" fill="#63A35A"/>
        <path d="M621.48 163.933l5.352 16.284h-20.51l5.35-16.284v-34.79h9.81v34.79z" fill="#542828"/>
        <path d="M648.083 159.102c3.792-1.944 6.393-5.947 6.393-10.57 0-4.164-2.11-7.825-5.3-9.93 3.19-2.108 5.3-5.77 5.3-9.932 0-6.53-5.19-11.823-11.592-11.823-1.31 0-2.567.22-3.74.63.113-.667.172-1.35.172-2.05 0-6.53-5.19-11.822-11.592-11.822-3.768 0-7.116 1.833-9.234 4.672-1.897-3.89-5.835-6.564-10.385-6.564-6.274 0-11.383 5.082-11.587 11.43-.44-.053-.89-.08-1.344-.08-6.65 0-12.04 5.717-12.04 12.77 0 2.105.482 4.09 1.333 5.842-.85 1.645-1.332 3.52-1.332 5.507 0 .452.025.9.074 1.338-3.26 2.093-5.425 5.795-5.425 10.012 0 4.15 2.097 7.802 5.27 9.91 7.093-6.85 18.863-11.33 32.184-11.33 13.742 0 25.835 4.77 32.843 11.99z" fill="#63A35A"/>
        <g>
          <path d="M642.884 183.795l5.35 16.285h-20.51l5.35-16.285v-34.79h9.81v34.79z" fill="#542828"/>
          <path d="M669.486 178.964c3.79-1.944 6.393-5.947 6.393-10.57 0-4.163-2.112-7.824-5.3-9.93 3.188-2.107 5.3-5.768 5.3-9.932 0-6.53-5.192-11.823-11.594-11.823-1.31 0-2.567.22-3.74.628.113-.665.173-1.35.173-2.048 0-6.53-5.192-11.823-11.594-11.823-3.768 0-7.116 1.833-9.233 4.673-1.898-3.89-5.836-6.564-10.386-6.564-6.273 0-11.383 5.08-11.587 11.428-.44-.052-.89-.078-1.344-.078-6.648 0-12.038 5.717-12.038 12.768 0 2.106.48 4.093 1.33 5.844-.85 1.644-1.33 3.518-1.33 5.506 0 .453.025.9.073 1.34-3.258 2.09-5.423 5.793-5.423 10.01 0 4.15 2.097 7.802 5.27 9.912 7.093-6.85 18.863-11.33 32.184-11.33 13.744 0 25.837 4.768 32.846 11.988z" fill="#63A35A"/>
        </g>
      </g>
      <g>
        <path d="M771.928 214.233l5.35 16.285h-20.51l5.35-16.285v-34.79h9.81v34.79z" fill="#542828"/>
        <path d="M798.53 209.403c3.792-1.944 6.394-5.947 6.394-10.57 0-4.164-2.11-7.825-5.3-9.93 3.19-2.108 5.3-5.77 5.3-9.933 0-6.53-5.19-11.822-11.593-11.822-1.308 0-2.566.22-3.74.628.114-.665.174-1.35.174-2.047 0-6.53-5.19-11.824-11.593-11.824-3.767 0-7.115 1.833-9.232 4.672-1.898-3.89-5.836-6.564-10.386-6.564-6.273 0-11.383 5.082-11.587 11.43-.44-.053-.89-.08-1.344-.08-6.648 0-12.038 5.717-12.038 12.77 0 2.105.48 4.09 1.332 5.842-.85 1.645-1.332 3.52-1.332 5.507 0 .452.025.9.074 1.338-3.26 2.094-5.424 5.795-5.424 10.013 0 4.15 2.097 7.802 5.27 9.91 7.093-6.85 18.863-11.33 32.184-11.33 13.743 0 25.836 4.77 32.844 11.99z" fill="#63A35A"/>
        <path d="M697.912 214.233l5.35 16.285h-20.51l5.35-16.285v-34.79h9.81v34.79z" fill="#542828"/>
        <path d="M724.514 209.403c3.79-1.944 6.393-5.947 6.393-10.57 0-4.164-2.11-7.825-5.3-9.93 3.19-2.108 5.3-5.77 5.3-9.933 0-6.53-5.19-11.822-11.593-11.822-1.31 0-2.567.22-3.74.628.114-.665.173-1.35.173-2.047 0-6.53-5.19-11.824-11.593-11.824-3.768 0-7.115 1.833-9.233 4.672-1.897-3.89-5.835-6.564-10.385-6.564-6.273 0-11.382 5.082-11.586 11.43-.443-.053-.89-.08-1.345-.08-6.65 0-12.04 5.717-12.04 12.77 0 2.105.48 4.09 1.333 5.842-.85 1.645-1.332 3.52-1.332 5.507 0 .452.025.9.073 1.338-3.26 2.094-5.425 5.795-5.425 10.013 0 4.15 2.098 7.802 5.27 9.91 7.093-6.85 18.864-11.33 32.184-11.33 13.743 0 25.835 4.77 32.844 11.99z" fill="#63A35A"/>
        <g>
          <path d="M719.314 234.096l5.35 16.285h-20.51l5.35-16.284v-34.79h9.81v34.79z" fill="#542828"/>
          <path d="M745.916 229.265c3.792-1.944 6.393-5.947 6.393-10.57 0-4.163-2.11-7.825-5.3-9.93 3.19-2.107 5.3-5.768 5.3-9.932 0-6.53-5.19-11.823-11.594-11.823-1.308 0-2.566.22-3.74.63.114-.666.173-1.35.173-2.05 0-6.528-5.19-11.822-11.594-11.822-3.767 0-7.115 1.833-9.233 4.673-1.897-3.89-5.835-6.563-10.385-6.563-6.274 0-11.383 5.08-11.587 11.428-.44-.052-.89-.078-1.343-.078-6.65 0-12.04 5.716-12.04 12.768 0 2.106.482 4.093 1.333 5.844-.85 1.643-1.332 3.517-1.332 5.505 0 .453.025.9.074 1.34-3.26 2.09-5.424 5.793-5.424 10.01 0 4.15 2.097 7.802 5.27 9.912 7.092-6.85 18.863-11.33 32.184-11.33 13.743 0 25.836 4.768 32.844 11.988z" fill="#63A35A"/>
        </g>
      </g>
      <g>
        <path fill="#5A3737" d="M728 233.327h6v58.233h-6z"/>
        <path d="M739.912 177.998c-4.97-18.548-7.94-31.803-7.94-31.803s-3.774 18.393-7.14 31.11c-3.368 12.715-13.055 18.893-13.055 18.893s10.67 7.03 20.443 7.374c9.772.344 19.546-7.322 19.546-7.322s-6.885.296-11.854-18.252z" fill="#46972A"/>
        <path d="M739.912 191.233c-4.97-18.55-7.94-31.803-7.94-31.803s-3.774 18.392-7.14 31.11c-3.368 12.715-13.055 18.893-13.055 18.893s10.67 7.03 20.443 7.373c9.772.345 19.546-7.322 19.546-7.322s-6.885.297-11.854-18.25z" fill="#46972A"/>
        <path d="M739.912 205.79c-4.97-18.547-7.94-31.802-7.94-31.802s-3.774 18.393-7.14 31.11c-3.368 12.715-13.055 18.893-13.055 18.893s10.67 7.03 20.443 7.374c9.772.345 19.546-7.32 19.546-7.32s-6.885.295-11.854-18.253z" fill="#46972A"/>
        <path d="M739.912 224.32c-4.97-18.55-7.94-31.803-7.94-31.803s-3.774 18.392-7.14 31.11c-3.368 12.715-13.055 18.892-13.055 18.892s10.67 7.028 20.443 7.373c9.772.345 19.546-7.322 19.546-7.322s-6.885.298-11.854-18.25z" fill="#46972A"/>
        <g>
          <path fill="#5A3737" d="M771.902 217.446h7.024v74.115h-7.024z"/>
          <path d="M785.848 147.026c-5.818-23.606-9.295-40.476-9.295-40.476s-4.42 23.41-8.36 39.593c-3.942 16.185-15.283 24.047-15.283 24.047s12.49 8.946 23.932 9.385c11.442.438 22.884-9.32 22.884-9.32s-8.06.378-13.878-23.23z" fill="#244618"/>
          <path d="M785.848 163.87c-5.818-23.606-9.295-40.475-9.295-40.475s-4.42 23.408-8.36 39.592c-3.942 16.185-15.283 24.047-15.283 24.047s12.49 8.946 23.932 9.385c11.442.437 22.884-9.32 22.884-9.32s-8.06.378-13.878-23.23z" fill="#244618"/>
          <path d="M785.848 182.4c-5.818-23.608-9.295-40.477-9.295-40.477s-4.42 23.408-8.36 39.593c-3.942 16.184-15.283 24.047-15.283 24.047s12.49 8.946 23.932 9.384c11.442.44 22.884-9.318 22.884-9.318s-8.06.376-13.878-23.23z" fill="#244618"/>
          <path d="M785.848 205.98c-5.818-23.606-9.295-40.475-9.295-40.475s-4.42 23.408-8.36 39.593c-3.942 16.184-15.283 24.047-15.283 24.047s12.49 8.946 23.932 9.384c11.442.438 22.884-9.32 22.884-9.32s-8.06.378-13.878-23.23z" fill="#244618"/>
        </g>
        <g>
          <path fill="#5A3737" d="M753.902 255.033h7.024v36.528h-7.024z"/>
          <path d="M767.848 220.326c-5.818-11.635-9.295-19.95-9.295-19.95s-4.42 11.538-8.36 19.514c-3.942 7.977-15.283 11.852-15.283 11.852s12.49 4.41 23.932 4.625c11.442.217 22.884-4.593 22.884-4.593s-8.06.187-13.878-11.448z" fill="#376F23"/>
          <path d="M767.848 228.628c-5.818-11.635-9.295-19.95-9.295-19.95s-4.42 11.538-8.36 19.514c-3.942 7.977-15.283 11.852-15.283 11.852s12.49 4.41 23.932 4.625c11.442.215 22.884-4.594 22.884-4.594s-8.06.186-13.878-11.448z" fill="#376F23"/>
          <path d="M767.848 237.76c-5.818-11.635-9.295-19.95-9.295-19.95s-4.42 11.538-8.36 19.514c-3.942 7.977-15.283 11.852-15.283 11.852s12.49 4.41 23.932 4.625c11.442.217 22.884-4.592 22.884-4.592s-8.06.186-13.878-11.448z" fill="#376F23"/>
          <path d="M767.848 249.382c-5.818-11.635-9.295-19.95-9.295-19.95s-4.42 11.538-8.36 19.515c-3.942 7.976-15.283 11.85-15.283 11.85s12.49 4.41 23.932 4.627c11.442.216 22.884-4.593 22.884-4.593s-8.06.187-13.878-11.448z" fill="#376F23"/>
        </g>
      </g>
    </g>
    <g>
      <path d="M665.713 211.814l4.506 13.42h-17.273l4.506-13.42v-28.667h8.26v28.667z" fill="#542828"/>
      <path d="M688.115 207.833c3.193-1.6 5.384-4.9 5.384-8.71 0-3.43-1.78-6.447-4.465-8.182 2.686-1.735 4.464-4.752 4.464-8.183 0-5.38-4.372-9.742-9.764-9.742-1.102 0-2.16.182-3.15.518.096-.548.146-1.11.146-1.687 0-5.38-4.37-9.742-9.762-9.742-3.173 0-5.992 1.51-7.775 3.85-1.6-3.206-4.915-5.41-8.746-5.41-5.284 0-9.587 4.19-9.758 9.42-.372-.044-.75-.066-1.132-.066-5.6 0-10.138 4.71-10.138 10.52 0 1.736.404 3.373 1.12 4.816-.715 1.355-1.12 2.9-1.12 4.538 0 .372.02.74.062 1.102-2.745 1.725-4.568 4.775-4.568 8.25 0 3.42 1.766 6.43 4.438 8.167 5.973-5.643 15.885-9.335 27.102-9.335 11.574 0 21.757 3.93 27.66 9.878z" fill="#63A35A"/>
      <path d="M603.383 211.814l4.506 13.42h-17.273l4.506-13.42v-28.667h8.26v28.667z" fill="#542828"/>
      <path d="M625.785 207.833c3.193-1.6 5.384-4.9 5.384-8.71 0-3.43-1.778-6.447-4.464-8.182 2.686-1.735 4.463-4.752 4.463-8.183 0-5.38-4.372-9.742-9.764-9.742-1.102 0-2.16.182-3.15.518.097-.548.147-1.11.147-1.687 0-5.38-4.37-9.742-9.763-9.742-3.173 0-5.992 1.51-7.775 3.85-1.598-3.206-4.914-5.41-8.746-5.41-5.284 0-9.586 4.19-9.758 9.42-.372-.044-.75-.066-1.132-.066-5.6 0-10.138 4.71-10.138 10.52 0 1.736.405 3.373 1.122 4.816-.717 1.355-1.122 2.9-1.122 4.538 0 .372.02.74.062 1.102-2.744 1.725-4.568 4.775-4.568 8.25 0 3.42 1.767 6.43 4.438 8.167 5.973-5.643 15.885-9.335 27.103-9.335 11.573 0 21.756 3.93 27.658 9.878z" fill="#63A35A"/>
      <path d="M621.406 228.18l4.506 13.42H608.64l4.506-13.42v-28.666h8.26v28.667z" fill="#542828"/>
      <path d="M643.808 224.2c3.193-1.602 5.384-4.9 5.384-8.71 0-3.43-1.777-6.447-4.463-8.183 2.685-1.735 4.462-4.752 4.462-8.183 0-5.38-4.37-9.742-9.763-9.742-1.103 0-2.162.182-3.15.518.096-.548.146-1.112.146-1.687 0-5.38-4.37-9.742-9.763-9.742-3.173 0-5.992 1.51-7.775 3.85-1.598-3.205-4.914-5.408-8.746-5.408-5.283 0-9.585 4.187-9.757 9.417-.372-.044-.75-.066-1.132-.066-5.6 0-10.138 4.71-10.138 10.522 0 1.735.405 3.372 1.122 4.815-.716 1.356-1.122 2.9-1.122 4.538 0 .373.02.74.062 1.103-2.744 1.725-4.568 4.775-4.568 8.25 0 3.42 1.766 6.43 4.437 8.167 5.973-5.644 15.885-9.336 27.103-9.336 11.573 0 21.756 3.93 27.658 9.88z" fill="#63A35A"/>
      <g>
        <path d="M711.945 262.473l4.506 13.418h-17.27l4.505-13.417v-28.667h8.26v28.667z" fill="#542828"/>
        <path d="M734.347 258.492c3.193-1.602 5.384-4.9 5.384-8.71 0-3.43-1.776-6.447-4.462-8.183 2.686-1.736 4.463-4.753 4.463-8.184 0-5.38-4.37-9.742-9.762-9.742-1.102 0-2.16.182-3.15.518.097-.548.147-1.112.147-1.687 0-5.38-4.37-9.742-9.763-9.742-3.173 0-5.992 1.51-7.775 3.85-1.598-3.206-4.914-5.41-8.746-5.41-5.282 0-9.584 4.188-9.756 9.418-.372-.042-.75-.064-1.132-.064-5.6 0-10.138 4.71-10.138 10.522 0 1.735.405 3.372 1.122 4.815-.717 1.355-1.122 2.9-1.122 4.537 0 .373.02.74.062 1.103-2.744 1.724-4.568 4.774-4.568 8.25 0 3.42 1.767 6.428 4.438 8.166 5.973-5.645 15.885-9.337 27.103-9.337 11.572 0 21.755 3.93 27.657 9.88z" fill="#63A35A"/>
        <path d="M649.616 262.473l4.505 13.418h-17.27l4.505-13.417v-28.667h8.26v28.667z" fill="#542828"/>
        <path d="M672.017 258.492c3.193-1.602 5.384-4.9 5.384-8.71 0-3.43-1.776-6.447-4.462-8.183 2.686-1.736 4.463-4.753 4.463-8.184 0-5.38-4.37-9.742-9.76-9.742-1.103 0-2.163.182-3.15.518.095-.548.145-1.112.145-1.687 0-5.38-4.37-9.742-9.763-9.742-3.172 0-5.992 1.51-7.775 3.85-1.598-3.206-4.914-5.41-8.746-5.41-5.28 0-9.584 4.188-9.756 9.418-.37-.042-.75-.064-1.132-.064-5.6 0-10.138 4.71-10.138 10.522 0 1.735.405 3.372 1.122 4.815-.716 1.355-1.122 2.9-1.122 4.537 0 .373.02.74.062 1.103-2.744 1.724-4.567 4.774-4.567 8.25 0 3.42 1.765 6.428 4.437 8.166 5.972-5.645 15.884-9.337 27.102-9.337 11.572 0 21.756 3.93 27.657 9.88z" fill="#63A35A"/>
        <g>
          <path d="M667.64 278.84l4.505 13.418h-17.273l4.506-13.42v-28.666h8.26v28.667z" fill="#542828"/>
          <path d="M690.04 274.86c3.193-1.603 5.384-4.902 5.384-8.71 0-3.432-1.777-6.45-4.463-8.184 2.687-1.736 4.464-4.752 4.464-8.183 0-5.38-4.37-9.743-9.762-9.743-1.102 0-2.162.183-3.15.52.096-.55.146-1.113.146-1.69 0-5.38-4.37-9.74-9.763-9.74-3.172 0-5.992 1.51-7.775 3.85-1.598-3.206-4.914-5.41-8.746-5.41-5.282 0-9.585 4.188-9.757 9.418-.37-.043-.75-.065-1.132-.065-5.6 0-10.138 4.71-10.138 10.52 0 1.737.405 3.373 1.122 4.816-.717 1.354-1.123 2.898-1.123 4.537 0 .373.02.74.062 1.102-2.745 1.724-4.568 4.774-4.568 8.25 0 3.42 1.766 6.428 4.438 8.166 5.973-5.644 15.884-9.336 27.102-9.336 11.573 0 21.757 3.93 27.658 9.88z" fill="#63A35A"/>
        </g>
      </g>
      <g>
        <path d="M776.308 303.92l4.506 13.42h-17.272l4.505-13.42v-28.666h8.26v28.667z" fill="#542828"/>
        <path d="M798.71 299.94c3.193-1.602 5.383-4.9 5.383-8.71 0-3.43-1.777-6.447-4.463-8.183 2.686-1.735 4.463-4.752 4.463-8.183 0-5.38-4.37-9.742-9.762-9.742-1.1 0-2.16.182-3.15.518.097-.548.147-1.112.147-1.687 0-5.38-4.37-9.742-9.762-9.742-3.173 0-5.992 1.51-7.775 3.85-1.6-3.205-4.915-5.408-8.746-5.408-5.283 0-9.586 4.187-9.758 9.417-.37-.044-.75-.066-1.13-.066-5.6 0-10.14 4.71-10.14 10.522 0 1.735.405 3.372 1.122 4.815-.716 1.356-1.12 2.9-1.12 4.538 0 .373.02.74.06 1.103-2.744 1.725-4.567 4.775-4.567 8.25 0 3.42 1.767 6.43 4.44 8.167 5.972-5.644 15.884-9.336 27.1-9.336 11.574 0 21.758 3.93 27.66 9.88z" fill="#63A35A"/>
        <path d="M713.978 303.92l4.506 13.42h-17.272l4.506-13.42v-28.666h8.26v28.667z" fill="#542828"/>
        <path d="M736.38 299.94c3.193-1.602 5.384-4.9 5.384-8.71 0-3.43-1.778-6.447-4.464-8.183 2.686-1.735 4.464-4.752 4.464-8.183 0-5.38-4.37-9.742-9.763-9.742-1.1 0-2.16.182-3.148.518.096-.548.146-1.112.146-1.687 0-5.38-4.37-9.742-9.763-9.742-3.173 0-5.992 1.51-7.775 3.85-1.598-3.205-4.914-5.408-8.746-5.408-5.283 0-9.586 4.187-9.757 9.417-.372-.044-.75-.066-1.132-.066-5.6 0-10.138 4.71-10.138 10.522 0 1.735.405 3.372 1.12 4.815-.715 1.356-1.12 2.9-1.12 4.538 0 .373.02.74.062 1.103-2.745 1.725-4.57 4.775-4.57 8.25 0 3.42 1.767 6.43 4.44 8.167 5.972-5.644 15.884-9.336 27.102-9.336 11.573 0 21.756 3.93 27.658 9.88z" fill="#63A35A"/>
        <g>
          <path d="M732 320.287l4.507 13.42h-17.272l4.506-13.42V291.62H732v28.667z" fill="#542828"/>
          <path d="M754.403 316.307c3.193-1.602 5.384-4.9 5.384-8.71 0-3.43-1.777-6.448-4.463-8.183 2.686-1.736 4.463-4.752 4.463-8.183 0-5.38-4.37-9.742-9.763-9.742-1.102 0-2.16.183-3.15.52.097-.55.147-1.113.147-1.69 0-5.38-4.37-9.74-9.762-9.74-3.173 0-5.992 1.51-7.775 3.85-1.598-3.206-4.914-5.41-8.746-5.41-5.283 0-9.585 4.188-9.757 9.418-.372-.043-.75-.065-1.132-.065-5.6 0-10.138 4.712-10.138 10.522 0 1.735.405 3.372 1.12 4.815-.715 1.355-1.12 2.9-1.12 4.538 0 .373.02.74.062 1.102-2.744 1.725-4.568 4.775-4.568 8.25 0 3.42 1.766 6.43 4.438 8.167 5.973-5.644 15.885-9.336 27.103-9.336 11.573 0 21.756 3.93 27.658 9.88z" fill="#63A35A"/>
        </g>
      </g>
      <g>
        <path fill="#5A3737" d="M515 131.484h6v35.884h-6z"/>
        <path d="M526.912 97.39c-4.97-11.43-7.94-19.598-7.94-19.598s-3.774 11.334-7.14 19.17c-3.368 7.836-13.055 11.642-13.055 11.642s10.67 4.332 20.443 4.544c9.772.213 19.546-4.512 19.546-4.512s-6.885.183-11.854-11.247z" fill="#46972A"/>
        <path d="M526.912 105.545c-4.97-11.43-7.94-19.597-7.94-19.597s-3.774 11.333-7.14 19.17c-3.368 7.835-13.055 11.642-13.055 11.642s10.67 4.33 20.443 4.544c9.772.212 19.546-4.512 19.546-4.512s-6.885.183-11.854-11.247z" fill="#46972A"/>
        <path d="M526.912 114.516c-4.97-11.43-7.94-19.597-7.94-19.597s-3.774 11.332-7.14 19.168c-3.368 7.836-13.055 11.643-13.055 11.643s10.67 4.332 20.443 4.545c9.772.212 19.546-4.512 19.546-4.512s-6.885.183-11.854-11.247z" fill="#46972A"/>
        <path d="M526.912 125.934c-4.97-11.43-7.94-19.598-7.94-19.598s-3.774 11.334-7.14 19.17c-3.368 7.836-13.055 11.643-13.055 11.643s10.67 4.33 20.443 4.542c9.772.213 19.546-4.512 19.546-4.512s-6.885.183-11.854-11.246z" fill="#46972A"/>
        <g>
          <path fill="#5A3737" d="M558.902 121.698h7.024v45.67h-7.024z"/>
          <path d="M572.848 78.304c-5.818-14.547-9.295-24.942-9.295-24.942s-4.42 14.425-8.36 24.398c-3.942 9.973-15.283 14.818-15.283 14.818s12.49 5.513 23.932 5.783c11.442.27 22.884-5.74 22.884-5.74s-8.06.23-13.878-14.316z" fill="#244618"/>
          <path d="M572.848 88.684c-5.818-14.547-9.295-24.942-9.295-24.942s-4.42 14.424-8.36 24.398c-3.942 9.973-15.283 14.818-15.283 14.818s12.49 5.512 23.932 5.783c11.442.27 22.884-5.742 22.884-5.742s-8.06.233-13.878-14.314z" fill="#244618"/>
          <path d="M572.848 100.102c-5.818-14.547-9.295-24.942-9.295-24.942s-4.42 14.424-8.36 24.397c-3.942 9.973-15.283 14.818-15.283 14.818s12.49 5.513 23.932 5.783c11.442.27 22.884-5.742 22.884-5.742s-8.06.233-13.878-14.314z" fill="#244618"/>
          <path d="M572.848 114.633c-5.818-14.547-9.295-24.942-9.295-24.942s-4.42 14.426-8.36 24.4c-3.942 9.972-15.283 14.817-15.283 14.817s12.49 5.512 23.932 5.783c11.442.27 22.884-5.743 22.884-5.743s-8.06.233-13.878-14.314z" fill="#244618"/>
        </g>
        <g>
          <path fill="#5A3737" d="M540.902 144.86h7.024v22.51h-7.024z"/>
          <path d="M554.848 123.473c-5.818-7.17-9.295-12.293-9.295-12.293s-4.42 7.11-8.36 12.024c-3.942 4.916-15.283 7.303-15.283 7.303s12.49 2.717 23.932 2.85c11.442.134 22.884-2.83 22.884-2.83s-8.06.115-13.878-7.054z" fill="#376F23"/>
          <path d="M554.848 128.588c-5.818-7.17-9.295-12.293-9.295-12.293s-4.42 7.11-8.36 12.025c-3.942 4.915-15.283 7.303-15.283 7.303s12.49 2.717 23.932 2.85c11.442.134 22.884-2.83 22.884-2.83s-8.06.115-13.878-7.055z" fill="#376F23"/>
          <path d="M554.848 134.215c-5.818-7.17-9.295-12.292-9.295-12.292s-4.42 7.11-8.36 12.024c-3.942 4.916-15.283 7.303-15.283 7.303s12.49 2.717 23.932 2.85c11.442.134 22.884-2.83 22.884-2.83s-8.06.115-13.878-7.055z" fill="#376F23"/>
          <path d="M554.848 141.377c-5.818-7.17-9.295-12.292-9.295-12.292s-4.42 7.11-8.36 12.024c-3.942 4.915-15.283 7.302-15.283 7.302s12.49 2.717 23.932 2.85c11.442.134 22.884-2.83 22.884-2.83s-8.06.115-13.878-7.055z" fill="#376F23"/>
        </g>
      </g>
      <g>
        <path d="M584.127 179.577l4.505 13.418H571.36l4.506-13.418V150.91h8.26v28.667z" fill="#542828"/>
        <path d="M606.528 175.596c3.193-1.602 5.384-4.9 5.384-8.71 0-3.43-1.777-6.447-4.463-8.183 2.685-1.735 4.462-4.752 4.462-8.183 0-5.38-4.37-9.742-9.762-9.742-1.102 0-2.162.182-3.15.518.096-.548.146-1.112.146-1.687 0-5.382-4.37-9.743-9.763-9.743-3.172 0-5.992 1.51-7.775 3.85-1.598-3.206-4.914-5.41-8.746-5.41-5.282 0-9.585 4.188-9.757 9.418-.37-.043-.75-.065-1.132-.065-5.6 0-10.138 4.71-10.138 10.522 0 1.735.405 3.372 1.122 4.815-.716 1.355-1.122 2.9-1.122 4.537 0 .373.02.74.062 1.103-2.744 1.724-4.567 4.774-4.567 8.25 0 3.42 1.766 6.428 4.438 8.166 5.972-5.644 15.884-9.335 27.102-9.335 11.573 0 21.757 3.93 27.658 9.878z" fill="#63A35A"/>
        <path d="M521.797 179.577l4.506 13.418H509.03l4.506-13.418V150.91h8.26v28.667z" fill="#542828"/>
        <path d="M544.2 175.596c3.192-1.602 5.383-4.9 5.383-8.71 0-3.43-1.778-6.447-4.464-8.183 2.685-1.735 4.463-4.752 4.463-8.183 0-5.38-4.37-9.742-9.763-9.742-1.102 0-2.16.182-3.15.518.096-.548.146-1.112.146-1.687 0-5.382-4.37-9.743-9.762-9.743-3.173 0-5.992 1.51-7.775 3.85-1.6-3.206-4.916-5.41-8.747-5.41-5.283 0-9.586 4.188-9.758 9.418-.37-.043-.75-.065-1.13-.065-5.6 0-10.14 4.71-10.14 10.522 0 1.735.405 3.372 1.122 4.815-.716 1.355-1.12 2.9-1.12 4.537 0 .373.02.74.06 1.103-2.744 1.724-4.567 4.774-4.567 8.25 0 3.42 1.766 6.428 4.438 8.166 5.973-5.644 15.885-9.335 27.102-9.335 11.573 0 21.757 3.93 27.66 9.878z" fill="#63A35A"/>
        <g>
          <path d="M539.82 195.943l4.506 13.42h-17.272l4.505-13.42v-28.667h8.26v28.667z" fill="#542828"/>
          <path d="M562.222 191.963c3.193-1.602 5.384-4.9 5.384-8.71 0-3.43-1.778-6.447-4.464-8.183 2.686-1.736 4.464-4.752 4.464-8.183 0-5.38-4.37-9.742-9.763-9.742-1.102 0-2.16.182-3.15.518.096-.548.146-1.112.146-1.688 0-5.38-4.372-9.742-9.763-9.742-3.173 0-5.992 1.51-7.775 3.85-1.6-3.205-4.915-5.408-8.746-5.408-5.283 0-9.586 4.187-9.757 9.417-.373-.043-.75-.065-1.133-.065-5.6 0-10.138 4.71-10.138 10.52 0 1.737.403 3.373 1.12 4.816-.716 1.355-1.12 2.9-1.12 4.538 0 .374.02.742.06 1.103-2.744 1.725-4.567 4.775-4.567 8.25 0 3.42 1.766 6.43 4.438 8.167 5.974-5.644 15.886-9.336 27.103-9.336 11.574 0 21.757 3.93 27.66 9.88z" fill="#63A35A"/>
        </g>
      </g>
    </g>
    <g>
      <path fill="#5A3737" d="M155 25.148h6v44.068h-6z"/>
      <path d="M166.912-16.722c-4.97-14.037-7.94-24.067-7.94-24.067s-3.774 13.92-7.14 23.542C148.463-7.624 138.776-2.95 138.776-2.95s10.67 5.32 20.443 5.58c9.772.26 19.546-5.54 19.546-5.54s-6.885.224-11.854-13.812z" fill="#46972A"/>
      <path d="M166.912-6.707c-4.97-14.036-7.94-24.067-7.94-24.067s-3.774 13.92-7.14 23.542c-3.368 9.623-13.055 14.298-13.055 14.298s10.67 5.32 20.443 5.58c9.772.26 19.546-5.54 19.546-5.54s-6.885.224-11.854-13.813z" fill="#46972A"/>
      <path d="M166.912 4.31c-4.97-14.036-7.94-24.067-7.94-24.067s-3.774 13.92-7.14 23.542c-3.368 9.623-13.055 14.298-13.055 14.298s10.67 5.32 20.443 5.58c9.772.26 19.546-5.54 19.546-5.54s-6.885.224-11.854-13.813z" fill="#46972A"/>
      <path d="M166.912 18.332c-4.97-14.037-7.94-24.067-7.94-24.067s-3.774 13.918-7.14 23.542c-3.368 9.623-13.055 14.298-13.055 14.298s10.67 5.32 20.443 5.58c9.772.26 19.546-5.54 19.546-5.54s-6.885.223-11.854-13.813z" fill="#46972A"/>
      <g>
        <path fill="#5A3737" d="M198.902 13.13h7.024v56.087h-7.024z"/>
        <path d="M212.848-13.392c-5.818-17.864-9.295-30.63-9.295-30.63s-4.42 17.714-8.36 29.962C191.25-1.812 179.91 4.137 179.91 4.137s12.49 6.77 23.932 7.102c11.442.33 22.884-7.053 22.884-7.053s-8.06.286-13.878-17.58z" fill="#244618"/>
        <path d="M212.848 4.454c-5.818-17.865-9.295-30.63-9.295-30.63s-4.42 17.714-8.36 29.962c-3.942 12.247-15.283 18.197-15.283 18.197s12.49 6.77 23.932 7.102c11.442.332 22.884-7.052 22.884-7.052s-8.06.286-13.878-17.58z" fill="#244618"/>
      </g>
      <g>
        <path fill="#5A3737" d="M180.902 41.574h7.024v27.643h-7.024z"/>
        <path d="M194.848 15.31C189.03 6.504 185.553.212 185.553.212s-4.42 8.73-8.36 14.767c-3.942 6.036-15.283 8.97-15.283 8.97s12.49 3.335 23.932 3.5c11.442.163 22.884-3.477 22.884-3.477s-8.06.14-13.878-8.664z" fill="#376F23"/>
        <path d="M194.848 21.592c-5.818-8.805-9.295-15.097-9.295-15.097s-4.42 8.73-8.36 14.767c-3.942 6.037-15.283 8.97-15.283 8.97s12.49 3.336 23.932 3.5c11.442.163 22.884-3.476 22.884-3.476s-8.06.14-13.878-8.664z" fill="#376F23"/>
        <path d="M194.848 28.503c-5.818-8.805-9.295-15.097-9.295-15.097s-4.42 8.73-8.36 14.767c-3.942 6.037-15.283 8.97-15.283 8.97s12.49 3.336 23.932 3.5c11.442.163 22.884-3.477 22.884-3.477s-8.06.14-13.878-8.663z" fill="#376F23"/>
        <path d="M194.848 37.298c-5.818-8.805-9.295-15.096-9.295-15.096s-4.42 8.73-8.36 14.767c-3.942 6.035-15.283 8.967-15.283 8.967s12.49 3.337 23.932 3.5c11.442.164 22.884-3.475 22.884-3.475s-8.06.14-13.878-8.664z" fill="#376F23"/>
      </g>
    </g>
    <g>
      <path d="M225.35 74.888l4.97 14.59h-19.054l4.97-14.59V43.716h9.113v31.172z" fill="#542828"/>
      <path d="M250.06 70.56c3.523-1.742 5.94-5.33 5.94-9.47 0-3.732-1.96-7.012-4.924-8.9 2.963-1.887 4.924-5.167 4.924-8.898 0-5.85-4.822-10.593-10.77-10.593-1.215 0-2.384.197-3.474.562.106-.596.16-1.21.16-1.834 0-5.85-4.82-10.594-10.768-10.594-3.5 0-6.61 1.643-8.577 4.187-1.762-3.485-5.42-5.88-9.647-5.88-5.827 0-10.574 4.552-10.763 10.24-.41-.047-.827-.07-1.25-.07-6.175 0-11.182 5.12-11.182 11.44 0 1.886.446 3.666 1.237 5.235-.79 1.474-1.237 3.153-1.237 4.934 0 .405.023.805.068 1.198-3.027 1.875-5.04 5.192-5.04 8.97 0 3.72 1.95 6.99 4.897 8.88 6.59-6.136 17.523-10.15 29.897-10.15 12.767 0 24 4.272 30.51 10.74z" fill="#63A35A"/>
      <path d="M156.592 74.888l4.97 14.59H142.51l4.97-14.59V43.716h9.112v31.172z" fill="#542828"/>
      <path d="M181.304 70.56c3.522-1.742 5.94-5.33 5.94-9.47 0-3.732-1.962-7.012-4.925-8.9 2.962-1.887 4.923-5.167 4.923-8.898 0-5.85-4.822-10.593-10.77-10.593-1.215 0-2.384.197-3.474.562.105-.596.16-1.21.16-1.834 0-5.85-4.822-10.594-10.77-10.594-3.5 0-6.61 1.643-8.576 4.187-1.763-3.485-5.422-5.88-9.648-5.88-5.828 0-10.574 4.552-10.764 10.24-.41-.047-.826-.07-1.248-.07-6.177 0-11.184 5.12-11.184 11.44 0 1.886.447 3.666 1.237 5.235-.79 1.474-1.237 3.153-1.237 4.934 0 .405.024.805.07 1.198-3.03 1.875-5.04 5.192-5.04 8.97 0 3.72 1.948 6.99 4.896 8.88 6.588-6.136 17.523-10.15 29.897-10.15 12.767 0 24 4.272 30.51 10.74z" fill="#63A35A"/>
      <g>
        <path d="M176.473 92.684l4.97 14.592h-19.052l4.97-14.592v-31.17h9.113v31.17z" fill="#542828"/>
        <path d="M201.185 88.356c3.522-1.742 5.94-5.328 5.94-9.47 0-3.73-1.96-7.012-4.924-8.9 2.964-1.886 4.924-5.166 4.924-8.897 0-5.852-4.82-10.595-10.77-10.595-1.215 0-2.383.2-3.474.564.106-.597.16-1.21.16-1.836 0-5.85-4.82-10.593-10.768-10.593-3.5 0-6.61 1.643-8.577 4.187-1.763-3.486-5.42-5.88-9.648-5.88-5.827 0-10.574 4.552-10.763 10.24-.41-.047-.826-.07-1.248-.07-6.177 0-11.184 5.12-11.184 11.44 0 1.886.446 3.666 1.237 5.235-.79 1.473-1.238 3.152-1.238 4.934 0 .405.023.805.068 1.2-3.027 1.874-5.038 5.19-5.038 8.97 0 3.72 1.948 6.99 4.895 8.88 6.59-6.137 17.523-10.152 29.898-10.152 12.766 0 24 4.273 30.51 10.742z" fill="#63A35A"/>
      </g>
    </g>
    <g>
      <path fill="#5A3737" d="M200 87.244h6v44.068h-6z"/>
      <path d="M211.912 45.374c-4.97-14.037-7.94-24.067-7.94-24.067s-3.774 13.918-7.14 23.54c-3.368 9.625-13.055 14.3-13.055 14.3s10.67 5.32 20.443 5.58c9.772.26 19.546-5.54 19.546-5.54s-6.885.223-11.854-13.813z" fill="#46972A"/>
      <path d="M211.912 55.39c-4.97-14.037-7.94-24.068-7.94-24.068s-3.774 13.92-7.14 23.542c-3.368 9.623-13.055 14.298-13.055 14.298s10.67 5.32 20.443 5.58c9.772.26 19.546-5.54 19.546-5.54s-6.885.224-11.854-13.813z" fill="#46972A"/>
      <path d="M211.912 66.406c-4.97-14.036-7.94-24.067-7.94-24.067s-3.774 13.918-7.14 23.54c-3.368 9.624-13.055 14.3-13.055 14.3s10.67 5.318 20.443 5.58c9.772.26 19.546-5.542 19.546-5.542s-6.885.225-11.854-13.812z" fill="#46972A"/>
      <path d="M211.912 80.428c-4.97-14.037-7.94-24.067-7.94-24.067s-3.774 13.92-7.14 23.543c-3.368 9.623-13.055 14.298-13.055 14.298s10.67 5.32 20.443 5.58c9.772.262 19.546-5.54 19.546-5.54s-6.885.224-11.854-13.812z" fill="#46972A"/>
      <g>
        <path fill="#5A3737" d="M243.902 75.226h7.024v56.087h-7.024z"/>
        <path d="M257.848 21.936c-5.818-17.865-9.295-30.63-9.295-30.63s-4.42 17.713-8.36 29.96c-3.942 12.25-15.283 18.2-15.283 18.2s12.49 6.77 23.932 7.1c11.442.333 22.884-7.05 22.884-7.05s-8.06.284-13.878-17.58z" fill="#244618"/>
        <path d="M257.848 34.683c-5.818-17.865-9.295-30.63-9.295-30.63s-4.42 17.713-8.36 29.96c-3.942 12.25-15.283 18.2-15.283 18.2s12.49 6.77 23.932 7.1c11.442.333 22.884-7.05 22.884-7.05s-8.06.284-13.878-17.58z" fill="#244618"/>
        <path d="M257.848 48.704c-5.818-17.864-9.295-30.63-9.295-30.63s-4.42 17.714-8.36 29.962c-3.942 12.248-15.283 18.197-15.283 18.197s12.49 6.77 23.932 7.102c11.442.332 22.884-7.052 22.884-7.052s-8.06.286-13.878-17.58z" fill="#244618"/>
        <path d="M257.848 66.55c-5.818-17.865-9.295-30.63-9.295-30.63s-4.42 17.714-8.36 29.962C236.25 78.13 224.91 84.08 224.91 84.08s12.49 6.77 23.932 7.1c11.442.333 22.884-7.05 22.884-7.05s-8.06.285-13.878-17.58z" fill="#244618"/>
      </g>
      <g>
        <path fill="#5A3737" d="M225.902 103.67h7.024v27.643h-7.024z"/>
        <path d="M239.848 77.405c-5.818-8.804-9.295-15.096-9.295-15.096s-4.42 8.73-8.36 14.766c-3.942 6.036-15.283 8.97-15.283 8.97s12.49 3.335 23.932 3.5c11.442.163 22.884-3.477 22.884-3.477s-8.06.14-13.878-8.665z" fill="#376F23"/>
        <path d="M239.848 83.688c-5.818-8.805-9.295-15.097-9.295-15.097s-4.42 8.732-8.36 14.768c-3.942 6.037-15.283 8.97-15.283 8.97s12.49 3.336 23.932 3.5c11.442.163 22.884-3.476 22.884-3.476s-8.06.14-13.878-8.664z" fill="#376F23"/>
        <path d="M239.848 90.6c-5.818-8.806-9.295-15.098-9.295-15.098s-4.42 8.73-8.36 14.767c-3.942 6.035-15.283 8.968-15.283 8.968s12.49 3.337 23.932 3.5c11.442.164 22.884-3.476 22.884-3.476s-8.06.14-13.878-8.663z" fill="#376F23"/>
        <path d="M239.848 99.394c-5.818-8.805-9.295-15.097-9.295-15.097s-4.42 8.73-8.36 14.768c-3.942 6.036-15.283 8.968-15.283 8.968s12.49 3.337 23.932 3.5c11.442.164 22.884-3.475 22.884-3.475s-8.06.14-13.878-8.664z" fill="#376F23"/>
      </g>
    </g>
    <text font-family="Futura-Medium, Futura" font-size="14" font-weight="400" fill="#FFFDFD" transform="translate(0 -71)">
      <tspan x="516.348" y="339">Rock Creek</tspan>
    </text>
    <text font-family="Futura-Medium, Futura" font-size="14" font-weight="400" fill="#F7F4F4" transform="translate(0 -71)">
      <tspan x="200.375" y="221">The Bowl</tspan>
    </text>
    <text font-family="Futura-Medium, Futura" font-size="14" font-weight="400" fill="#000" transform="translate(0 -71)">
      <tspan x="33.975" y="636">Entrance</tspan>
    </text>
    <text font-family="Futura-Medium, Futura" font-size="14" font-weight="400" fill="#F7F4F4" transform="translate(0 -71)">
      <tspan x="152.228" y="462">Parking</tspan>
    </text>
    <path fill="#F4BB0F" d="M19 563.5l-7.64 4.017 1.458-8.508-6.182-6.027 8.543-1.242L19 544l3.82 7.74 8.544 1.243-6.182 6.026 1.46 8.507"/>
    <text font-family="Futura-Medium, Futura" font-size="14" font-weight="400" fill="#F7F4F4" transform="translate(0 -71)">
      <tspan x="186.02" y="240">Ceremony Area</tspan>
    </text>
    <text font-family="Futura-Medium, Futura" font-size="14" font-weight="400" fill="#090909" transform="translate(0 -71)">
      <tspan x="432.277" y="560">Cabins / Tents</tspan>
    </text>
  </g>
</svg>
